<svg xmlns="http://www.w3.org/2000/svg" id="svg217" version="1.1" viewBox="0 0 30 30" height="30mm" width="30mm">
  
  <defs id="defs214"></defs>
  <g id="layer1">
    <circle r="15" cy="15" cx="15" id="path566" style="fill:#4d4d4d;stroke-width:0.166736"></circle>
    <g id="Layer_1" transform="matrix(0.26458333,0,0,0.26458333,-19.607961,-23.15108)">
	<g id="g131">
			<g id="g55">
				<g id="g49">
					<path style="fill:#f8b300" id="path47" d="m 141,161 c -0.9,0.9 -1.9,1.7 -2.8,2.6 -0.8,0.8 -1.5,0.7 -2.1,-0.2 -1.2,-1.7 -2.4,-3.4 -3.6,-5.2 -0.3,-0.4 -0.6,-0.6 -1.1,-0.7 -2.4,-0.3 -4.8,-0.7 -7.2,-1.1 -0.4,-0.1 -0.9,0 -1.3,0.1 -2.7,0.5 -5.5,0.9 -8.2,1.4 -0.6,0.1 -1.2,0.4 -1.7,0.7 -1.4,0.7 -2.9,1.4 -4,2.6 -0.4,0.4 -0.9,0.5 -1.4,0.6 -1.9,0.1 -3.9,0.3 -5.8,0.4 -1.6,0 -3.1,0.5 -4.5,1.2 -0.8,0.4 -1.5,0.7 -2.3,1.1 -0.5,0.2 -1,0.3 -1.5,0.3 -0.9,-0.1 -1.9,-0.2 -2.8,-0.4 -1.5,-0.3 -2.6,-1.3 -3.8,-2.1 -0.4,-0.3 -0.5,-0.8 -0.2,-1.3 0.1,-0.2 0.2,-0.4 0.3,-0.5 0.9,-1 1,-2.2 1,-3.5 0,-0.5 -0.1,-0.9 -0.3,-1.3 -1.5,-3.9 -3.2,-7.7 -5,-11.5 -0.6,-1.2 -0.3,-1.6 0.9,-1.8 0.4,-0.1 0.5,-0.2 0.3,-0.6 -0.4,-1 -0.7,-1.9 -1.1,-2.9 -0.3,-0.7 -0.3,-1.3 -0.1,-2 0.3,-1 0.6,-2.1 0.9,-3.1 0.2,-0.7 0.6,-1.1 1.1,-1.5 1.6,-0.9 3.2,-1.8 4.8,-2.8 1,-0.6 2.1,-1 3.2,-1.3 2.7,-0.7 5.4,-1.3 8.1,-2 0.5,-0.1 0.8,-0.4 1.1,-0.7 1.5,-1.5 2.2,-3.3 2.7,-5.2 0.1,-0.5 0.3,-0.9 0.4,-1.4 0.1,-0.4 0.3,-0.6 0.7,-0.7 0.4,-0.1 0.6,0.1 0.9,0.4 0.2,0.3 0.5,0.6 0.7,0.9 0.2,-0.1 0.2,-0.3 0.2,-0.5 0.2,-0.6 0.5,-1 1.1,-1.2 0.5,-0.1 0.9,-0.4 1.2,-0.8 0.8,-1 1.7,-2 2.6,-2.9 2.3,-2.4 2.9,-2.1 5.7,-0.8 0.4,0.2 0.7,0.6 1.1,0.9 0.5,0.4 1.1,0.8 1.8,0.7 0.5,0 0.8,-0.3 0.8,-0.8 0.1,-0.9 0.4,-1.7 1,-2.5 0.7,-1 1.4,-1.9 2.1,-2.9 0.4,-0.6 1,-0.9 1.7,-0.9 0.7,0 1.3,0 2.1,0 -0.2,-0.5 -0.6,-0.8 -0.8,-1.2 -0.3,-0.3 -0.5,-0.7 -0.2,-1.1 0.3,-0.4 0.7,-0.3 1,-0.2 3.6,1.1 7.3,2.1 11.1,2.8 0.9,0.1 1.1,0.7 0.7,1.5 -0.1,0.2 -0.3,0.4 -0.5,0.6 -1,1.1 -1.7,2.5 -2.4,3.8 -0.2,0.3 -0.1,0.5 0.1,0.7 1.5,1.6 3.4,2.7 5.4,3.6 1.7,0.8 3.4,1.7 5.1,2.6 0.4,0.2 0.6,0.1 0.8,-0.3 1.2,-2 1.5,-4.3 2.1,-6.5 0.7,-2.8 1.3,-5.7 2,-8.5 0,-0.1 0.1,-0.2 0.1,-0.3 0.1,-0.4 0.3,-0.7 0.7,-0.7 0.4,0 0.6,0.3 0.8,0.6 1,2.5 2,5 3,7.6 0.2,0.5 0.5,0.8 1,0.9 0.5,0.1 1,0.2 1.6,0.3 0.7,0.1 1.1,0.6 1.3,1.3 0.6,2.8 1.3,5.5 2,8.3 0.2,0.5 0.4,0.9 0.9,1.2 1.4,0.7 2.8,1.5 4.1,2.3 0.7,0.4 1.1,0.9 1.5,1.6 0.5,1.2 1.1,2.3 1.6,3.5 0.2,0.4 0.5,0.6 1,0.6 0.2,0 0.4,0 0.6,0 0.7,0 1.2,0.3 1.4,0.9 0.5,1.7 1.6,2.8 2.9,3.9 0.4,0.3 0.8,0.8 1.2,1.1 0.8,0.6 1.2,1.4 1.3,2.4 0.3,2.2 0.7,4.3 1,6.5 0.2,1.3 -0.2,2.5 -0.2,3.8 0,0.2 -0.1,0.4 -0.1,0.6 0,1.7 -0.5,3.1 -1.4,4.6 -1.8,3 -3.6,6.1 -5.1,9.3 -0.6,1.3 -0.9,2.6 -1.3,4 -0.2,0.8 -0.7,1.3 -1.4,1.4 -2.6,0.6 -5,1.5 -7.3,2.8 -0.7,0.4 -1.4,0.3 -2,-0.2 -0.6,-0.5 -1.2,-0.9 -1.8,-1.4 -0.3,-0.2 -0.5,-0.2 -0.8,0 -0.7,0.5 -1.4,0.9 -2.1,1.4 -0.6,0.4 -1.2,0.5 -1.9,0.3 -2.7,-0.8 -5.3,-1.8 -7.7,-3.3 -0.7,-0.4 -1.1,-0.9 -1.3,-1.7 -0.2,-0.7 -0.4,-1.4 -0.5,-2.1 -0.1,-0.4 -0.3,-0.7 -0.8,-0.6 -0.3,0 -0.6,-0.1 -0.8,-0.1 -0.6,-0.1 -1.1,-0.4 -1.2,-1.1 -0.1,-0.4 -0.2,-0.8 -0.3,-1.2 -0.1,-0.5 -0.2,-0.4 -0.5,-0.2 -0.4,0.4 -0.8,0.7 -1.2,1.1 -0.3,0.3 -0.6,0.5 -1,0.2 -0.4,-0.3 -0.3,-0.7 -0.2,-1 0.3,-1 0.7,-1.9 1,-2.9 -0.1,-0.2 -0.1,-0.3 -0.2,-0.3 z" class="st4"></path>

				</g>

				<g id="g53">
					<path style="fill:#f8b300" id="path51" d="m 168.8,180.4 c 0.1,1 -0.3,1.7 -1,2.4 -0.7,0.7 -1.4,1.4 -2.1,2.2 -1.2,1.2 -3.3,0.9 -4.1,-0.6 -0.9,-1.7 -1.9,-3.5 -2.8,-5.2 -0.2,-0.4 -0.4,-0.8 -0.1,-1.2 0.3,-0.4 0.7,-0.3 1.1,-0.2 0.4,0.1 0.9,0.2 1.3,0.3 1.9,0.8 3.8,0.2 5.7,-0.2 0.2,0 0.4,-0.1 0.6,-0.1 0.7,-0.1 1.1,0.3 1.2,1 0.2,0.5 0.2,1.1 0.2,1.6 z" class="st4"></path>

				</g>

			</g>

			<g id="g65">
				<g id="g59">
					<path style="fill:#ffffff" id="path57" d="M 152.7,181.6 96.4,160.5 c -0.2,-0.1 -0.4,-0.3 -0.3,-0.6 0,-0.1 0,-0.1 0.1,-0.1 -0.1,0 -0.3,0 -0.4,-0.1 -0.3,-0.1 -0.4,-0.4 -0.4,-0.7 0.5,-4.6 5.2,-45.4 6.1,-53 0,-0.4 0.3,-0.7 0.7,-0.8 0.4,-0.1 0.7,0 1,0.3 l 26.9,28.7 24.3,-17.9 -1.1,42.6 13.6,14.6 -14,-2.6 z m -53.1,-20.7 52.4,19.7 0.3,-9.9 z m 53.4,9.1 11.8,2.2 -11.6,-12.3 z M 96.6,159.6 c 0,0 0,0 0,0 l 55.6,10.3 0.3,-10.8 -22.5,-24 z m 5.9,-53.8 c 0,0 0,0 0,0 -0.1,0 -0.2,0.1 -0.2,0.2 v 0 c -1,7.7 -5.6,48.4 -6.1,53 l 33.3,-24.5 -26.8,-28.6 c -0.1,-0.1 -0.1,-0.1 -0.2,-0.1 z m 28.1,28.8 22,23.5 1.1,-40.4 z" class="st2"></path>

				</g>

				<g id="g63">
					<path style="fill:#ffffff" id="path61" d="m 178.2,137.1 -93.1,-4.9 c -0.3,0 -0.5,-0.2 -0.5,-0.4 0,-0.3 0.1,-0.5 0.4,-0.6 l 69.2,-14.7 24.4,19.5 c 0.2,0.1 0.3,0.4 0.2,0.7 -0.1,0.2 -0.3,0.4 -0.6,0.4 z m -0.1,-0.5 c 0,0 0,0 0,0 z m -91.2,-5 90.9,4.8 -23.9,-19 z" class="st2"></path>

				</g>

			</g>

			<g id="g73">
				<path style="fill:#ffffff" id="path67" d="M 118.2,150 H 93.7 c -0.9,0 -1.6,-0.7 -1.6,-1.6 v -3.1 c 0,-0.9 0.7,-1.6 1.6,-1.6 h 24.5 c 0.9,0 1.6,0.7 1.6,1.6 v 3.1 c -0.1,0.9 -0.8,1.6 -1.6,1.6 z" class="st2"></path>

				<path style="fill:#f8b300" id="path69" d="m 97.2,148.1 h -2.6 c -0.3,0 -0.6,-0.3 -0.6,-0.6 v -1.2 c 0,-0.3 0.3,-0.6 0.6,-0.6 h 2.6 c 0.3,0 0.6,0.3 0.6,0.6 v 1.2 c 0,0.3 -0.2,0.6 -0.6,0.6 z" class="st4"></path>

				<path style="fill:#f8b300" id="path71" d="m 102.9,148.1 h -2.6 c -0.3,0 -0.6,-0.3 -0.6,-0.6 v -1.2 c 0,-0.3 0.3,-0.6 0.6,-0.6 h 2.6 c 0.3,0 0.6,0.3 0.6,0.6 v 1.2 c 0,0.3 -0.3,0.6 -0.6,0.6 z" class="st4"></path>

			</g>

			<g id="g81">
				<path style="fill:#ffffff" id="path75" d="m 143.3,131.5 h -24.5 c -0.9,0 -1.6,-0.7 -1.6,-1.6 v -3.1 c 0,-0.9 0.7,-1.6 1.6,-1.6 h 24.5 c 0.9,0 1.6,0.7 1.6,1.6 v 3.1 c 0,0.9 -0.7,1.6 -1.6,1.6 z" class="st2"></path>

				<path style="fill:#f8b300" id="path77" d="m 122.4,129.6 h -2.6 c -0.3,0 -0.6,-0.3 -0.6,-0.6 v -1.2 c 0,-0.3 0.3,-0.6 0.6,-0.6 h 2.6 c 0.3,0 0.6,0.3 0.6,0.6 v 1.2 c -0.1,0.3 -0.3,0.6 -0.6,0.6 z" class="st4"></path>

				<path style="fill:#f8b300" id="path79" d="m 128,129.6 h -2.6 c -0.3,0 -0.6,-0.3 -0.6,-0.6 v -1.2 c 0,-0.3 0.3,-0.6 0.6,-0.6 h 2.6 c 0.3,0 0.6,0.3 0.6,0.6 v 1.2 c 0,0.3 -0.3,0.6 -0.6,0.6 z" class="st4"></path>

			</g>

			<g id="g89">
				<path style="fill:#ffffff" id="path83" d="m 172.6,149.6 h -24.5 c -0.9,0 -1.6,-0.7 -1.6,-1.6 v -3.1 c 0,-0.9 0.7,-1.6 1.6,-1.6 h 24.5 c 0.9,0 1.6,0.7 1.6,1.6 v 3.1 c 0,0.9 -0.7,1.6 -1.6,1.6 z" class="st2"></path>

				<path style="fill:#f8b300" id="path85" d="m 151.7,147.7 h -2.6 c -0.3,0 -0.6,-0.3 -0.6,-0.6 v -1.2 c 0,-0.3 0.3,-0.6 0.6,-0.6 h 2.6 c 0.3,0 0.6,0.3 0.6,0.6 v 1.2 c 0,0.3 -0.3,0.6 -0.6,0.6 z" class="st4"></path>

				<path style="fill:#f8b300" id="path87" d="m 157.3,147.7 h -2.6 c -0.3,0 -0.6,-0.3 -0.6,-0.6 v -1.2 c 0,-0.3 0.3,-0.6 0.6,-0.6 h 2.6 c 0.3,0 0.6,0.3 0.6,0.6 v 1.2 c 0,0.3 -0.2,0.6 -0.6,0.6 z" class="st4"></path>

			</g>

			<circle style="fill:#ffffff" id="circle91" r="1.9" cy="136.5" cx="178.2" class="st2"></circle>

			<circle style="fill:#ffffff" id="circle93" r="1.3" cy="130.3" cx="163.3" class="st2"></circle>

			<circle style="fill:#ffffff" id="circle95" r="1.3" cy="144.60001" cx="139.39999" class="st2"></circle>

			<circle style="fill:#ffffff" id="circle97" r="1.3" cy="121.7" cx="135.8" class="st2"></circle>

			<circle style="fill:#ffffff" id="circle99" r="3.3" cy="116.9" cx="154.2" class="st2"></circle>

			<circle style="fill:#ffffff" id="circle101" r="1.9" cy="135.5" cx="153.5" class="st2"></circle>

			<circle style="fill:#ffffff" id="circle103" r="2.4000001" cy="104.7" cx="102.1" class="st2"></circle>

			<circle style="fill:#ffffff" id="circle105" r="1.6" cy="123.3" cx="108.2" class="st2"></circle>

			<circle style="fill:#ffffff" id="circle107" r="1.6" cy="122.4" cx="99.900002" class="st2"></circle>

			<circle style="fill:#ffffff" id="circle109" r="2.3" cy="115.3" cx="128.60001" class="st2"></circle>

			<circle style="fill:#ffffff" id="circle111" r="3.3" cy="131.60001" cx="84.300003" class="st2"></circle>

			<circle style="fill:#ffffff" id="circle113" r="3.3" cy="159.8" cx="95.699997" class="st2"></circle>

			<circle style="fill:#ffffff" id="circle115" r="2.3" cy="165.2" cx="125.9" class="st2"></circle>

			<circle style="fill:#ffffff" id="circle117" r="2.3" cy="172.8" cx="165.89999" class="st2"></circle>

			<circle style="fill:#ffffff" id="circle119" r="2.8" cy="181.10001" cx="152.3" class="st2"></circle>

			<circle style="fill:#ffffff" id="circle121" r="1.4" cy="172.8" cx="131.10001" class="st2"></circle>

			<circle style="fill:#ffffff" id="circle123" r="2.3" cy="157.10001" cx="164.39999" class="st2"></circle>

			<circle style="fill:#ffffff" id="circle125" r="2.3" cy="149.10001" cx="129" class="st2"></circle>

			<circle style="fill:#ffffff" id="circle127" r="1.4" cy="134.39999" cx="130" class="st2"></circle>

			<circle style="fill:#ffffff" id="circle129" r="1.6" cy="137.39999" cx="114" class="st2"></circle>

		</g>

</g>
  </g>
</svg>
