<svg width="258" height="40" viewBox="0 0 258 40" fill="none" xmlns="http://www.w3.org/2000/svg"><path d="M33.28 37.1326H31.1245V33.8288H32.3289C33.0011 33.8288 33.4493 33.4087 33.4493 32.4564V27.3052C33.4493 25.1218 34.4296 23.9454 36.2489 23.3584C34.4296 22.7703 33.4493 21.5951 33.4493 19.4117V14.2605C33.4493 13.3082 33.0011 12.8894 32.3289 12.8894H31.1245V9.58553H33.28C35.6875 9.58553 37.3668 11.0688 37.3668 13.4215V18.8248C37.3668 20.7281 38.5151 21.6804 40.4745 21.6804V25.0403C38.5151 25.0403 37.3668 25.9926 37.3668 27.896V33.2992C37.3668 35.6507 35.6875 37.1339 33.28 37.1339V37.1326Z" fill="#1E302D"/><path d="M0 25.0377V21.6779C1.95937 21.6779 3.10775 20.7256 3.10775 18.8222V13.419C3.10775 11.0675 4.78704 9.58298 7.19456 9.58298H9.35V12.8868H8.1456C7.47338 12.8868 7.02523 13.3069 7.02523 14.258V19.4091C7.02523 21.5926 6.04491 22.769 4.22558 23.3559C6.04491 23.9441 7.02523 25.1192 7.02523 27.3027V32.4538C7.02523 33.4061 7.47338 33.8263 8.1456 33.8263H9.35V37.1301H7.19456C4.78704 37.1301 3.10775 35.6469 3.10775 33.2954V27.8921C3.10775 25.9888 1.95937 25.0365 0 25.0365V25.0377Z" fill="#1E302D"/><path fill-rule="evenodd" clip-rule="evenodd" d="M20.2381 0.063694L27.3142 7.13985L24.0142 10.4386L20.2368 6.66115L16.4594 10.4386L13.1606 7.13985L20.2368 0.063694H20.2381Z" fill="#02C382"/><path fill-rule="evenodd" clip-rule="evenodd" d="M20.238 9.75996L28.6714 18.1933L25.3726 21.492L20.238 16.3574L15.1034 21.492L11.8047 18.1933L20.238 9.75996Z" fill="#02C382"/><path fill-rule="evenodd" clip-rule="evenodd" d="M20.2382 19.4563L30.0287 29.2468L26.7299 32.5468L20.2394 26.0562L13.7489 32.5468L10.4502 29.2468L20.2407 19.4563H20.2382Z" fill="#02C382"/><path fill-rule="evenodd" clip-rule="evenodd" d="M17.9058 39.9132V31.0941H22.5718V39.9132H17.9058Z" fill="#1E302D"/><path d="M180.674 30.3608H176.363V19.9464H173.703V16.3625H176.363V12.0236H180.674V16.3625H183.333V19.9464H180.674V30.3608Z" fill="#1E302D"/><path d="M160.559 25.9366H164.646C164.702 26.9169 165.43 27.5038 166.745 27.5038C168.06 27.5038 168.705 27.0277 168.705 26.2994C168.705 25.8793 168.481 25.4311 167.444 25.2071L164.869 24.6469C162.293 24.0867 161.034 22.9676 161.034 20.5041C161.034 17.5924 163.526 15.9131 166.885 15.9131C170.245 15.9131 172.401 17.8164 172.401 20.6441H168.314C168.314 19.6918 167.726 19.0488 166.691 19.0488C165.71 19.0488 165.095 19.553 165.095 20.3093C165.095 20.9535 165.627 21.3176 166.607 21.5417L169.21 22.1019C171.506 22.606 172.766 23.6691 172.766 25.9098C172.766 28.9056 170.218 30.7249 166.579 30.7249C162.939 30.7249 160.559 28.7655 160.559 25.9378V25.9366Z" fill="#1E302D"/><path d="M151.959 30.7249C147.732 30.7249 144.708 27.6451 144.708 23.3343C144.708 19.0234 147.648 15.9156 151.875 15.9156C156.102 15.9156 159.014 18.7993 159.014 23.3623V24.4546L148.851 24.5107C149.103 26.358 150.14 27.2263 152.043 27.2263C153.666 27.2263 154.815 26.6381 155.123 25.631H159.07C158.565 28.7388 155.794 30.7262 151.959 30.7262V30.7249ZM151.903 19.4142C150.196 19.4142 149.243 20.1705 148.907 21.8498H154.731C154.731 20.3653 153.638 19.4142 151.903 19.4142Z" fill="#1E302D"/><path d="M143.694 16.3625V20.4213H142.323C139.859 20.4213 138.376 21.5137 138.376 24.2853V30.3608H134.065V16.3905H138.124L138.348 18.4619C138.936 17.0895 140.167 16.1664 142.044 16.1664C142.548 16.1664 143.107 16.2225 143.695 16.3625H143.694Z" fill="#1E302D"/><path d="M116.139 23.3343C116.139 18.9113 119.387 15.9436 123.866 15.9436C128.345 15.9436 131.565 18.9113 131.565 23.3343C131.565 27.7572 128.317 30.6969 123.866 30.6969C119.415 30.6969 116.139 27.7572 116.139 23.3343ZM120.478 23.3062C120.478 25.4337 121.849 26.8341 123.866 26.8341C125.883 26.8341 127.226 25.435 127.226 23.3062C127.226 21.1775 125.855 19.8064 123.866 19.8064C121.877 19.8064 120.478 21.2056 120.478 23.3062Z" fill="#1E302D"/><path d="M105.764 16.3625H107.696V15.2421C107.696 11.0713 109.879 9.2507 113.435 9.2507C114.023 9.2507 114.695 9.30672 115.366 9.41875V13.1147H114.162C112.399 13.1147 112.006 14.039 112.006 15.2421V16.3625H115.366V19.9464H112.006V30.3608H107.696V19.9464H105.764V16.3625Z" fill="#1E302D"/><path d="M95.505 30.7249C92.5373 30.7249 90.6899 28.9896 90.6899 26.246C90.6899 23.6704 92.5093 22.0751 95.8691 21.823L99.7879 21.5149V21.2909C99.7879 19.9184 98.9476 19.1914 97.4083 19.1914C95.589 19.1914 94.6087 19.8917 94.6087 21.1508H91.0248C91.0248 17.987 93.6284 15.9156 97.6311 15.9156C101.634 15.9156 103.985 18.1831 103.985 22.1872V30.362H100.179L99.8986 28.5147C99.4505 29.8019 97.6031 30.7262 95.5037 30.7262L95.505 30.7249ZM97.0162 27.5331C98.6675 27.5331 99.8159 26.7208 99.8159 25.1256V24.3693L97.6324 24.5654C95.7571 24.7335 95.0848 25.1536 95.0848 26.0486C95.0848 27.0569 95.7011 27.5318 97.0162 27.5318V27.5331Z" fill="#1E302D"/><path d="M86.6809 30.3608H82.37V19.9464H79.7104V16.3625H82.37V12.0236H86.6809V16.3625H89.3405V19.9464H86.6809V30.3608Z" fill="#1E302D"/><path d="M69.5875 30.7249C66.6198 30.7249 64.7725 28.9896 64.7725 26.246C64.7725 23.6704 66.5918 22.0751 69.9516 21.823L73.8716 21.5149V21.2909C73.8716 19.9184 73.0314 19.1914 71.4921 19.1914C69.6728 19.1914 68.6925 19.8917 68.6925 21.1508H65.1086C65.1086 17.987 67.7122 15.9156 71.7149 15.9156C75.7177 15.9156 78.0692 18.1831 78.0692 22.1872V30.362H74.2612L73.9811 28.5147C73.533 29.8019 71.6857 30.7262 69.5862 30.7262L69.5875 30.7249ZM71.0987 27.5331C72.75 27.5331 73.8984 26.7208 73.8984 25.1256V24.3693L71.7149 24.5654C69.8396 24.7335 69.1674 25.1536 69.1674 26.0486C69.1674 27.0569 69.7836 27.5318 71.0987 27.5318V27.5331Z" fill="#1E302D"/><path d="M53.3321 30.7249C49.3013 30.7249 46.6978 27.8692 46.6978 23.4463C46.6978 19.0234 49.3574 15.9156 53.6122 15.9156C55.3475 15.9156 57.0001 16.6159 57.8111 17.6509V9.25197H62.1219V30.3608H58.0631L57.8391 28.5695C57.0828 29.8566 55.3475 30.7249 53.3321 30.7249ZM54.3672 26.7769C56.3826 26.7769 57.7831 25.3777 57.7831 23.277C57.7831 21.1763 56.3839 19.7771 54.3672 19.7771C52.3505 19.7771 51.0354 21.2043 51.0354 23.277C51.0354 25.3497 52.3225 26.7769 54.3672 26.7769Z" fill="#1E302D"/><path d="M190.314 23.5854C190.314 22.1667 190.585 20.9254 191.126 19.8614C191.686 18.7787 192.451 17.9387 193.422 17.3414C194.411 16.7254 195.559 16.4174 196.866 16.4174C198.434 16.4174 199.75 16.8374 200.814 17.6774C201.897 18.5174 202.569 19.6374 202.83 21.0374H200.898C200.637 20.104 200.142 19.3854 199.414 18.8814C198.686 18.3774 197.846 18.1254 196.894 18.1254C195.998 18.1254 195.195 18.3494 194.486 18.7974C193.777 19.2454 193.217 19.88 192.806 20.7014C192.414 21.504 192.218 22.456 192.218 23.5574C192.218 24.64 192.405 25.5827 192.778 26.3854C193.151 27.188 193.674 27.8134 194.346 28.2614C195.037 28.7094 195.839 28.9334 196.754 28.9334C197.781 28.9334 198.667 28.6814 199.414 28.1774C200.161 27.6547 200.665 26.9547 200.926 26.0774H202.886C202.681 26.992 202.289 27.7947 201.71 28.4854C201.131 29.176 200.413 29.7174 199.554 30.1094C198.714 30.4827 197.781 30.6694 196.754 30.6694C195.466 30.6694 194.337 30.38 193.366 29.8014C192.414 29.204 191.667 28.3734 191.126 27.3094C190.585 26.2454 190.314 25.004 190.314 23.5854Z" fill="#1E302D"/><path d="M207.829 30.3334H205.897V9.92135H207.829V30.3334Z" fill="#1E302D"/><path d="M210.986 23.5574C210.986 22.1574 211.285 20.9254 211.882 19.8614C212.479 18.7974 213.301 17.9574 214.346 17.3414C215.391 16.7254 216.567 16.4174 217.874 16.4174C219.199 16.4174 220.375 16.7254 221.402 17.3414C222.447 17.9574 223.269 18.7974 223.866 19.8614C224.463 20.9254 224.762 22.1574 224.762 23.5574C224.762 24.92 224.463 26.1427 223.866 27.2254C223.269 28.2894 222.447 29.1294 221.402 29.7454C220.375 30.3614 219.199 30.6694 217.874 30.6694C216.567 30.6694 215.391 30.3614 214.346 29.7454C213.301 29.1294 212.479 28.2894 211.882 27.2254C211.285 26.1427 210.986 24.92 210.986 23.5574ZM212.946 23.5294C212.946 24.5934 213.151 25.536 213.562 26.3574C213.991 27.16 214.57 27.7947 215.298 28.2614C216.045 28.7094 216.903 28.9334 217.874 28.9334C218.845 28.9334 219.694 28.7094 220.422 28.2614C221.169 27.7947 221.747 27.16 222.158 26.3574C222.587 25.536 222.802 24.5934 222.802 23.5294C222.802 22.484 222.587 21.56 222.158 20.7574C221.747 19.9547 221.169 19.32 220.422 18.8534C219.694 18.3867 218.845 18.1534 217.874 18.1534C216.903 18.1534 216.045 18.3867 215.298 18.8534C214.57 19.32 213.991 19.9547 213.562 20.7574C213.151 21.56 212.946 22.484 212.946 23.5294Z" fill="#1E302D"/><path d="M237.044 16.7814H238.976V30.3334H237.296L237.044 28.0374C236.67 28.8214 236.045 29.456 235.168 29.9414C234.309 30.4267 233.348 30.6694 232.284 30.6694C230.697 30.6694 229.474 30.1654 228.616 29.1574C227.776 28.1494 227.356 26.824 227.356 25.1814V16.7534H229.316V24.5654C229.316 26.1707 229.642 27.3 230.296 27.9534C230.968 28.6067 231.836 28.9334 232.9 28.9334C234.206 28.9334 235.224 28.5134 235.952 27.6734C236.68 26.8147 237.044 25.5827 237.044 23.9774V16.7814Z" fill="#1E302D"/><path d="M248.047 30.6694C246.74 30.6694 245.62 30.3614 244.687 29.7454C243.754 29.1294 243.035 28.2894 242.531 27.2254C242.027 26.1427 241.775 24.9294 241.775 23.5854C241.775 22.2227 242.027 21 242.531 19.9174C243.035 18.8347 243.754 17.9854 244.687 17.3694C245.639 16.7347 246.787 16.4174 248.131 16.4174C249.251 16.4174 250.24 16.66 251.099 17.1454C251.976 17.6307 252.648 18.368 253.115 19.3574V9.92135H255.047V30.3334H253.367L253.171 27.5614C252.686 28.6067 251.995 29.3907 251.099 29.9134C250.203 30.4174 249.186 30.6694 248.047 30.6694ZM248.383 28.9054C249.391 28.9054 250.24 28.6814 250.931 28.2334C251.622 27.7667 252.154 27.132 252.527 26.3294C252.9 25.508 253.087 24.5747 253.087 23.5294C253.087 22.484 252.9 21.56 252.527 20.7574C252.154 19.9547 251.622 19.32 250.931 18.8534C250.24 18.3867 249.391 18.1534 248.383 18.1534C247.412 18.1534 246.572 18.3867 245.863 18.8534C245.172 19.32 244.64 19.9547 244.267 20.7574C243.912 21.56 243.735 22.484 243.735 23.5294C243.735 24.5747 243.912 25.508 244.267 26.3294C244.64 27.132 245.172 27.7667 245.863 28.2334C246.572 28.6814 247.412 28.9054 248.383 28.9054Z" fill="#1E302D"/></svg>