<svg width="310" height="48" viewBox="0 0 310 48" fill="none" xmlns="http://www.w3.org/2000/svg"><path d="M39.9361 44.5592H37.3496V40.5946H38.7949C39.6016 40.5946 40.1393 40.0905 40.1393 38.9477V32.7663C40.1393 30.1462 41.3157 28.7345 43.4989 28.0302C41.3157 27.3243 40.1393 25.9142 40.1393 23.2941V17.1127C40.1393 15.9699 39.6016 15.4673 38.7949 15.4673H37.3496V11.5027H39.9361C42.8252 11.5027 44.8403 13.2825 44.8403 16.1059V22.5898C44.8403 24.8738 46.2184 26.0166 48.5696 26.0166V30.0484C46.2184 30.0484 44.8403 31.1912 44.8403 33.4752V39.9591C44.8403 42.7809 42.8252 44.5607 39.9361 44.5607V44.5592Z" fill="white"/><path d="M0 30.0453V26.0135C2.35125 26.0135 3.72931 24.8708 3.72931 22.5867V16.1028C3.72931 13.281 5.74445 11.4996 8.63347 11.4996H11.22V15.4642H9.77472C8.96806 15.4642 8.43028 15.9684 8.43028 17.1096V23.291C8.43028 25.9112 7.25389 27.3228 5.07069 28.0271C7.25389 28.733 8.43028 30.1431 8.43028 32.7633V38.9446C8.43028 40.0874 8.96806 40.5916 9.77472 40.5916H11.22V44.5562H8.63347C5.74445 44.5562 3.72931 42.7763 3.72931 39.9545V33.4706C3.72931 31.1866 2.35125 30.0438 0 30.0438V30.0453Z" fill="white"/><path fill-rule="evenodd" clip-rule="evenodd" d="M24.2855 0.076416L32.7769 8.5678L28.8169 12.5263L24.284 7.99336L19.7511 12.5263L15.7926 8.5678L24.284 0.076416H24.2855Z" fill="#02C382"/><path fill-rule="evenodd" clip-rule="evenodd" d="M24.2855 11.7119L34.4055 21.8319L30.4471 25.7904L24.2855 19.6289L18.124 25.7904L14.1655 21.8319L24.2855 11.7119Z" fill="#02C382"/><path fill-rule="evenodd" clip-rule="evenodd" d="M24.2856 23.3475L36.0342 35.0961L32.0757 39.0561L24.2871 31.2675L16.4985 39.0561L12.54 35.0961L24.2887 23.3475H24.2856Z" fill="#02C382"/><path fill-rule="evenodd" clip-rule="evenodd" d="M21.4867 47.8958V37.3129H27.086V47.8958H21.4867Z" fill="white"/><path d="M216.808 36.4329H211.635V23.9357H208.444V19.635H211.635V14.4283H216.808V19.635H220V23.9357H216.808V36.4329Z" fill="white"/><path d="M192.671 31.1239H197.575C197.643 32.3003 198.516 33.0046 200.095 33.0046C201.673 33.0046 202.446 32.4332 202.446 31.5593C202.446 31.0552 202.177 30.5174 200.933 30.2485L197.843 29.5763C194.752 28.904 193.241 27.5611 193.241 24.6049C193.241 21.1108 196.231 19.0957 200.263 19.0957C204.294 19.0957 206.881 21.3797 206.881 24.7729H201.977C201.977 23.6302 201.271 22.8586 200.029 22.8586C198.853 22.8586 198.115 23.4636 198.115 24.3711C198.115 25.1442 198.753 25.5811 199.928 25.85L203.052 26.5222C205.807 27.1272 207.319 28.4029 207.319 31.0918C207.319 34.6867 204.262 36.8699 199.894 36.8699C195.527 36.8699 192.671 34.5186 192.671 31.1254V31.1239Z" fill="white"/><path d="M182.351 36.8699C177.279 36.8699 173.65 33.1742 173.65 28.0011C173.65 22.8281 177.178 19.0988 182.25 19.0988C187.322 19.0988 190.816 22.5592 190.816 28.0347V29.3456L178.622 29.4128C178.924 31.6296 180.168 32.6715 182.452 32.6715C184.4 32.6715 185.778 31.9657 186.147 30.7572H190.884C190.279 34.4865 186.953 36.8714 182.351 36.8714V36.8699ZM182.284 23.2971C180.235 23.2971 179.092 24.2046 178.689 26.2197H185.677C185.677 24.4383 184.366 23.2971 182.284 23.2971Z" fill="white"/><path d="M172.433 19.6351V24.5056H170.787C167.831 24.5056 166.051 25.8164 166.051 29.1424V36.433H160.878V19.6687H165.749L166.017 22.1544C166.723 20.5074 168.201 19.3998 170.453 19.3998C171.058 19.3998 171.728 19.467 172.434 19.6351H172.433Z" fill="white"/><path d="M139.367 28.0011C139.367 22.6936 143.264 19.1323 148.639 19.1323C154.014 19.1323 157.878 22.6936 157.878 28.0011C157.878 33.3086 153.98 36.8362 148.639 36.8362C143.298 36.8362 139.367 33.3086 139.367 28.0011ZM144.574 27.9675C144.574 30.5204 146.219 32.2009 148.639 32.2009C151.059 32.2009 152.671 30.5219 152.671 27.9675C152.671 25.413 151.025 23.7676 148.639 23.7676C146.253 23.7676 144.574 25.4466 144.574 27.9675Z" fill="white"/><path d="M126.917 19.635H129.235V18.2906C129.235 13.2856 131.855 11.1008 136.122 11.1008C136.828 11.1008 137.634 11.1681 138.44 11.3025V15.7376H136.994C134.878 15.7376 134.408 16.8468 134.408 18.2906V19.635H138.44V23.9357H134.408V36.4329H129.235V23.9357H126.917V19.635Z" fill="white"/><path d="M114.606 36.8699C111.045 36.8699 108.828 34.7875 108.828 31.4951C108.828 28.4045 111.011 26.4901 115.043 26.1876L119.746 25.8179V25.549C119.746 23.9021 118.737 23.0297 116.89 23.0297C114.707 23.0297 113.531 23.87 113.531 25.381H109.23C109.23 21.5844 112.354 19.0988 117.158 19.0988C121.961 19.0988 124.783 21.8197 124.783 26.6246V36.4344H120.215L119.879 34.2176C119.341 35.7622 117.124 36.8714 114.605 36.8714L114.606 36.8699ZM116.42 33.0397C118.401 33.0397 119.779 32.065 119.779 30.1507V29.2432L117.159 29.4785C114.909 29.6801 114.102 30.1843 114.102 31.2583C114.102 32.4683 114.842 33.0382 116.42 33.0382V33.0397Z" fill="white"/><path d="M104.017 36.4329H98.8441V23.9357H95.6526V19.635H98.8441V14.4283H104.017V19.635H107.209V23.9357H104.017V36.4329Z" fill="white"/><path d="M83.5052 36.8699C79.944 36.8699 77.7272 34.7875 77.7272 31.4951C77.7272 28.4045 79.9104 26.4901 83.9422 26.1876L88.6462 25.8179V25.549C88.6462 23.9021 87.6379 23.0297 85.7908 23.0297C83.6076 23.0297 82.4312 23.87 82.4312 25.381H78.1305C78.1305 21.5844 81.2548 19.0988 86.0581 19.0988C90.8615 19.0988 93.6833 21.8197 93.6833 26.6246V36.4344H89.1137L88.7776 34.2176C88.2398 35.7622 86.023 36.8714 83.5037 36.8714L83.5052 36.8699ZM85.3187 33.0397C87.3002 33.0397 88.6783 32.065 88.6783 30.1507V29.2432L86.0581 29.4785C83.8077 29.6801 83.0011 30.1843 83.0011 31.2583C83.0011 32.4683 83.7405 33.0382 85.3187 33.0382V33.0397Z" fill="white"/><path d="M63.9986 36.8699C59.1617 36.8699 56.0374 33.4431 56.0374 28.1356C56.0374 22.8281 59.2289 19.0988 64.3347 19.0988C66.4171 19.0988 68.4001 19.9391 69.3733 21.1812V11.1024H74.5464V36.433H69.6758L69.4069 34.2834C68.4994 35.828 66.4171 36.8699 63.9986 36.8699ZM65.2407 32.1323C67.6592 32.1323 69.3397 30.4533 69.3397 27.9324C69.3397 25.4116 67.6607 23.7326 65.2407 23.7326C62.8207 23.7326 61.2425 25.4452 61.2425 27.9324C61.2425 30.4196 62.7871 32.1323 65.2407 32.1323Z" fill="white"/><path d="M228.377 28.3024C228.377 26.6 228.702 25.1104 229.351 23.8336C230.023 22.5344 230.942 21.5264 232.107 20.8096C233.294 20.0704 234.671 19.7008 236.239 19.7008C238.121 19.7008 239.7 20.2048 240.977 21.2128C242.276 22.2208 243.083 23.5648 243.396 25.2448H241.078C240.764 24.1248 240.171 23.2624 239.297 22.6576C238.423 22.0528 237.415 21.7504 236.273 21.7504C235.198 21.7504 234.235 22.0192 233.383 22.5568C232.532 23.0944 231.86 23.856 231.367 24.8416C230.897 25.8048 230.662 26.9472 230.662 28.2688C230.662 29.568 230.886 30.6992 231.334 31.6624C231.782 32.6256 232.409 33.376 233.215 33.9136C234.044 34.4512 235.007 34.72 236.105 34.72C237.337 34.72 238.401 34.4176 239.297 33.8128C240.193 33.1856 240.798 32.3456 241.111 31.2928H243.463C243.217 32.3904 242.747 33.3536 242.052 34.1824C241.358 35.0112 240.495 35.6608 239.465 36.1312C238.457 36.5792 237.337 36.8032 236.105 36.8032C234.559 36.8032 233.204 36.456 232.039 35.7616C230.897 35.0448 230.001 34.048 229.351 32.7712C228.702 31.4944 228.377 30.0048 228.377 28.3024Z" fill="white"/><path d="M249.395 36.4H247.076V11.9056H249.395V36.4Z" fill="white"/><path d="M253.183 28.2688C253.183 26.5888 253.542 25.1104 254.258 23.8336C254.975 22.5568 255.961 21.5488 257.215 20.8096C258.47 20.0704 259.881 19.7008 261.449 19.7008C263.039 19.7008 264.45 20.0704 265.682 20.8096C266.937 21.5488 267.922 22.5568 268.639 23.8336C269.356 25.1104 269.714 26.5888 269.714 28.2688C269.714 29.904 269.356 31.3712 268.639 32.6704C267.922 33.9472 266.937 34.9552 265.682 35.6944C264.45 36.4336 263.039 36.8032 261.449 36.8032C259.881 36.8032 258.47 36.4336 257.215 35.6944C255.961 34.9552 254.975 33.9472 254.258 32.6704C253.542 31.3712 253.183 29.904 253.183 28.2688ZM255.535 28.2352C255.535 29.512 255.782 30.6432 256.274 31.6288C256.79 32.592 257.484 33.3536 258.358 33.9136C259.254 34.4512 260.284 34.72 261.449 34.72C262.614 34.72 263.633 34.4512 264.506 33.9136C265.402 33.3536 266.097 32.592 266.59 31.6288C267.105 30.6432 267.362 29.512 267.362 28.2352C267.362 26.9808 267.105 25.872 266.59 24.9088C266.097 23.9456 265.402 23.184 264.506 22.624C263.633 22.064 262.614 21.784 261.449 21.784C260.284 21.784 259.254 22.064 258.358 22.624C257.484 23.184 256.79 23.9456 256.274 24.9088C255.782 25.872 255.535 26.9808 255.535 28.2352Z" fill="white"/><path d="M284.453 20.1376H286.771V36.4H284.755L284.453 33.6448C284.005 34.5856 283.254 35.3472 282.202 35.9296C281.171 36.512 280.018 36.8032 278.741 36.8032C276.837 36.8032 275.37 36.1984 274.339 34.9888C273.331 33.7792 272.827 32.1888 272.827 30.2176V20.104H275.179V29.4784C275.179 31.4048 275.571 32.76 276.355 33.544C277.162 34.328 278.203 34.72 279.48 34.72C281.048 34.72 282.269 34.216 283.142 33.208C284.016 32.1776 284.453 30.6992 284.453 28.7728V20.1376Z" fill="white"/><path d="M297.656 36.8032C296.088 36.8032 294.744 36.4336 293.624 35.6944C292.504 34.9552 291.642 33.9472 291.037 32.6704C290.432 31.3712 290.13 29.9152 290.13 28.3024C290.13 26.6672 290.432 25.2 291.037 23.9008C291.642 22.6016 292.504 21.5824 293.624 20.8432C294.767 20.0816 296.144 19.7008 297.757 19.7008C299.101 19.7008 300.288 19.992 301.319 20.5744C302.372 21.1568 303.178 22.0416 303.738 23.2288V11.9056H306.056V36.4H304.04L303.805 33.0736C303.223 34.328 302.394 35.2688 301.319 35.896C300.244 36.5008 299.023 36.8032 297.656 36.8032ZM298.06 34.6864C299.269 34.6864 300.288 34.4176 301.117 33.88C301.946 33.32 302.584 32.5584 303.032 31.5952C303.48 30.6096 303.704 29.4896 303.704 28.2352C303.704 26.9808 303.48 25.872 303.032 24.9088C302.584 23.9456 301.946 23.184 301.117 22.624C300.288 22.064 299.269 21.784 298.06 21.784C296.895 21.784 295.887 22.064 295.036 22.624C294.207 23.184 293.568 23.9456 293.12 24.9088C292.695 25.872 292.482 26.9808 292.482 28.2352C292.482 29.4896 292.695 30.6096 293.12 31.5952C293.568 32.5584 294.207 33.32 295.036 33.88C295.887 34.4176 296.895 34.6864 298.06 34.6864Z" fill="white"/></svg>